<?xml version="1.0" standalone="no"?>
<!DOCTYPE svg PUBLIC "-//W3C//DTD SVG 20010904//EN"
 "http://www.w3.org/TR/2001/REC-SVG-20010904/DTD/svg10.dtd">
<svg version="1.0" xmlns="http://www.w3.org/2000/svg"
 width="344.000000pt" height="344.000000pt" viewBox="0 0 344.000000 344.000000"
 preserveAspectRatio="xMidYMid meet">
<metadata>
Created by potrace 1.14, written by Peter Selinger 2001-2017
</metadata>
<g transform="translate(0.000000,344.000000) scale(0.100000,-0.100000)"
fill="#000000" stroke="none">
<path d="M1866 3122 c3 -15 23 -94 44 -177 107 -412 123 -477 141 -564 10 -52
18 -95 17 -96 -2 -2 -12 -5 -24 -9 -19 -6 -24 8 -78 226 -32 128 -81 314 -109
413 -51 176 -53 180 -80 183 -21 3 -35 -4 -51 -22 l-22 -26 -23 26 c-12 14
-24 24 -26 22 -5 -5 18 -102 84 -353 68 -258 111 -438 114 -479 1 -19 -4 -32
-18 -40 -11 -6 -22 -12 -24 -14 -8 -4 -1 -92 9 -118 6 -16 17 -24 33 -24 22 0
25 -6 34 -60 8 -49 7 -63 -5 -72 -10 -9 -13 -25 -9 -56 4 -41 3 -45 -53 -97
-146 -140 -179 -335 -89 -522 28 -59 110 -148 163 -177 86 -47 85 -46 51 -47
-174 -6 -184 -4 -221 32 -82 80 -144 206 -164 337 -15 93 7 212 56 312 41 83
150 202 216 236 27 14 35 23 29 33 -7 12 -17 9 -55 -13 l-46 -27 0 61 c0 38
-4 59 -10 55 -5 -3 -10 -33 -10 -67 0 -58 -2 -62 -49 -114 -27 -30 -64 -80
-82 -111 l-33 -57 -22 179 c-13 98 -25 186 -27 194 -9 32 -7 -98 4 -259 8
-126 8 -189 -1 -265 -21 -174 12 -305 120 -473 29 -45 57 -79 63 -75 5 3 7 1
4 -4 -18 -28 183 -239 321 -338 45 -32 80 -60 78 -62 -1 -2 -19 4 -39 12 -20
8 -39 15 -43 15 -15 0 22 -33 56 -50 20 -10 42 -26 49 -34 7 -9 18 -13 24 -9
6 4 8 0 4 -10 -4 -12 -2 -14 11 -10 9 3 14 3 10 -2 -4 -4 0 -14 10 -21 15 -12
10 -13 -38 -14 -40 -1 -50 -4 -35 -10 11 -5 36 -9 56 -9 23 -1 39 -7 43 -16 3
-8 12 -15 20 -15 24 0 27 -28 3 -34 -40 -11 -77 -6 -117 14 -42 22 -71 25 -85
11 -6 -5 -30 -14 -55 -19 -31 -7 -37 -10 -19 -11 21 -1 39 -18 84 -78 32 -43
80 -99 108 -125 48 -45 49 -48 43 -87 -7 -46 -6 -47 39 -25 21 10 32 21 29 29
-3 8 7 53 22 102 15 48 28 94 30 101 3 10 13 8 41 -6 21 -10 65 -26 98 -36 33
-9 72 -23 88 -31 26 -14 30 -12 110 42 95 65 231 177 285 235 20 22 52 56 71
76 53 57 134 170 179 248 46 80 137 276 147 316 6 25 4 27 -32 31 l-38 4 43 1
c57 3 54 22 -5 22 -78 0 -223 22 -272 41 l-46 18 192 1 193 0 6 25 c3 14 4 31
1 39 -3 7 0 19 6 25 8 8 0 11 -30 11 -24 0 -48 7 -57 15 -12 12 -29 14 -83 10
-52 -5 -65 -4 -53 5 12 9 11 10 -8 5 -16 -5 -28 -1 -38 12 -9 10 -12 12 -8 4
7 -15 -17 -10 -71 15 -29 14 -29 14 20 8 28 -3 104 -11 170 -17 82 -8 128 -17
144 -29 29 -21 27 -22 35 23 l6 36 -107 17 c-136 22 -359 77 -482 119 -90 31
-94 34 -122 81 -15 28 -25 55 -22 60 3 6 3 8 -2 4 -8 -8 -18 1 -59 56 -56 75
-148 155 -220 192 -81 42 -70 27 -180 253 -31 62 -58 123 -60 135 -2 12 -14
55 -27 96 -12 41 -37 134 -54 205 -32 128 -45 138 -25 20 16 -97 40 -323 39
-373 -1 -67 -14 -26 -23 68 -13 152 -66 385 -137 615 -33 106 -45 131 -60 132
-16 2 -18 -3 -13 -25z m64 -652 c12 -22 0 -55 -22 -63 -22 -7 -48 13 -48 36 0
45 50 64 70 27z m157 -371 c-3 -11 -1 -16 4 -13 6 3 7 -5 3 -20 -3 -14 -2 -26
3 -26 5 0 8 -13 5 -30 -5 -35 -12 -38 -30 -9 -9 14 -10 24 -3 33 6 7 6 17 1
26 -6 8 -10 27 -10 42 0 21 4 26 16 21 9 -3 14 -13 11 -24z m168 -25 c11 -17
12 -25 4 -22 -6 2 -16 14 -20 26 -11 29 -5 28 16 -4z m9 -59 c197 -51 345
-202 396 -400 21 -83 26 -200 10 -225 -6 -10 -10 -11 -10 -2 0 20 -21 14 -27
-8 -3 -11 -9 -20 -13 -20 -15 0 -66 -57 -62 -69 2 -6 -4 -11 -13 -11 -13 0
-14 3 -3 23 6 12 13 29 15 37 28 175 -15 327 -124 438 -48 48 -91 73 -206 120
-27 12 -46 44 -49 87 -1 13 -5 22 -9 19 -4 -2 -12 3 -19 11 -11 13 -7 15 22
15 18 0 60 -7 92 -15z m-324 -25 c0 -5 -2 -10 -4 -10 -3 0 -8 5 -11 10 -3 6
-1 10 4 10 6 0 11 -4 11 -10z m209 -213 c19 -81 17 -87 -30 -87 -23 0 -59 -5
-81 -12 -33 -10 -41 -9 -48 3 -12 19 29 41 95 50 l50 8 -55 -4 c-30 -2 -65 -6
-77 -10 -18 -6 -23 -3 -23 9 0 10 5 14 10 11 6 -3 10 -2 10 3 0 11 68 32 104
32 17 0 25 4 21 11 -4 5 -9 29 -11 52 l-4 42 14 -30 c8 -16 19 -51 25 -78z
m111 83 c18 -12 2 -12 -25 0 -13 6 -15 9 -5 9 8 0 22 -4 30 -9z m-10 -24 c0
-2 -13 -9 -30 -15 -35 -12 -41 -5 -7 9 25 10 37 12 37 6z m86 -12 c18 -14 18
-14 -6 -3 -31 14 -36 19 -24 19 6 0 19 -7 30 -16z m-419 -14 c11 0 14 -6 10
-22 -3 -12 -2 -29 3 -39 7 -13 6 -17 -5 -15 -8 1 -18 5 -21 9 -4 4 -14 7 -23
6 -12 0 -11 -3 4 -9 17 -7 17 -9 3 -9 -10 -1 -18 -8 -18 -17 0 -8 -13 -20 -29
-25 -27 -9 -51 -49 -30 -49 5 0 9 6 9 14 0 7 10 16 21 19 l21 6 -21 -20 c-11
-11 -21 -29 -21 -39 0 -14 -7 -20 -21 -20 -18 0 -19 -2 -9 -15 7 -8 8 -15 2
-15 -5 0 -12 -8 -14 -18 -5 -18 -38 -27 -38 -10 0 4 7 8 15 8 8 0 15 2 15 4 0
2 3 11 6 20 3 9 1 16 -4 16 -6 0 -13 -8 -15 -17 -4 -16 -5 -16 -6 0 -1 12 10
23 29 30 35 13 41 31 8 22 -13 -4 -18 -3 -11 2 6 4 15 21 18 36 4 15 14 27 22
27 8 0 13 6 11 12 -6 17 14 37 31 30 9 -3 12 -1 7 6 -4 8 2 16 18 21 18 8 23
15 19 31 -6 23 -8 22 -73 -34 -20 -17 -13 -8 15 21 27 28 52 47 53 42 2 -5 11
-9 19 -9z m121 13 c-10 -2 -18 -9 -18 -15 0 -5 7 -7 16 -4 25 10 69 19 64 14
-3 -3 -26 -12 -51 -21 -43 -14 -46 -14 -45 2 1 19 15 31 36 30 11 -1 10 -3 -2
-6z m217 -13 c-3 -5 -14 -10 -23 -9 -14 0 -13 2 3 9 27 11 27 11 20 0z m50 -9
c-6 -5 -23 -12 -40 -15 -28 -6 -28 -5 5 8 43 18 46 18 35 7z m80 -11 c10 -11
16 -20 13 -20 -3 0 -13 9 -23 20 -10 11 -16 20 -13 20 3 0 13 -9 23 -20z m-52
-7 c-7 -2 -13 -9 -13 -15 0 -6 7 -7 16 -4 8 3 12 2 9 -4 -8 -13 -35 -13 -35 1
0 6 -10 8 -22 5 -15 -4 -12 -1 7 9 17 8 35 14 40 14 6 0 4 -3 -2 -6z m-70 -35
c70 -37 143 -121 140 -160 -1 -11 3 -16 9 -12 7 5 9 1 5 -9 -3 -9 -2 -19 4
-23 6 -3 8 -12 5 -20 -3 -8 0 -23 6 -34 9 -15 9 -24 -1 -42 -7 -13 -11 -28
-10 -34 5 -22 -55 -128 -93 -163 -61 -57 -79 -40 -19 18 63 61 82 101 89 177
6 84 -18 152 -80 217 -26 28 -51 48 -55 44 -4 -4 9 -20 28 -36 44 -36 86 -114
94 -172 l6 -44 -29 60 c-27 56 -75 115 -130 157 -21 17 -32 56 -12 43 6 -3 10
-2 10 3 0 6 -8 13 -17 17 -17 7 -16 8 2 15 11 5 21 9 23 9 2 1 13 -4 25 -11z
m115 -5 c-10 -2 -18 -9 -18 -14 0 -5 12 -6 26 -3 25 6 26 5 20 -20 -6 -25 -5
-26 21 -21 l28 5 -27 -11 c-22 -8 -31 -7 -44 5 -14 15 -14 16 0 16 9 0 16 5
16 11 0 6 -9 8 -20 4 -12 -4 -26 0 -35 9 -13 13 -13 15 3 19 9 3 24 5 32 5 10
0 9 -2 -2 -5z m91 -46 c-2 -3 -15 10 -28 27 l-24 31 28 -27 c16 -15 27 -29 24
-31z m-525 -39 c2 -22 -5 -49 -21 -81 -22 -41 -25 -57 -21 -121 3 -64 8 -81
34 -118 34 -49 113 -105 161 -114 18 -4 36 -11 40 -17 6 -10 -11 -9 -97 9 -28
5 -33 4 -23 -6 6 -7 44 -15 83 -18 58 -4 71 -2 68 9 -1 8 2 15 7 17 11 4 43
-89 44 -126 1 -13 8 -31 17 -39 13 -13 13 -17 2 -24 -9 -6 -17 1 -27 24 -7 17
-14 37 -15 42 -1 6 -4 15 -7 20 -4 6 -9 21 -12 35 -6 23 -10 25 -47 22 -53 -5
-126 13 -172 44 -21 13 -38 22 -38 19 0 -3 -11 4 -23 17 -32 31 -70 96 -63
107 4 5 0 11 -6 13 -9 3 -13 31 -13 94 0 99 16 145 76 217 35 43 46 38 53 -25z
m-186 -3 c-6 -14 -13 -23 -15 -21 -5 5 15 46 22 46 3 0 -1 -11 -7 -25z m476
-22 c153 -108 85 -348 -102 -361 -183 -12 -281 209 -151 339 46 46 86 60 158
54 39 -3 66 -12 95 -32z m231 7 c-3 -5 -13 -10 -21 -10 -8 0 -12 -4 -9 -10 3
-5 4 -10 1 -10 -17 0 -13 22 6 29 30 13 30 13 23 1z m-734 -51 c-5 -13 -10
-19 -10 -12 -1 15 10 45 15 40 3 -2 0 -15 -5 -28z m722 -9 c-3 -12 -8 -19 -11
-16 -5 6 5 36 12 36 2 0 2 -9 -1 -20z m11 -44 c-3 -15 -8 -25 -11 -23 -2 3 -1
17 3 31 3 15 8 25 11 23 2 -3 1 -17 -3 -31z m-697 -22 c-3 -3 -12 -4 -19 -1
-8 3 -5 6 6 6 11 1 17 -2 13 -5z m-10 -50 c-6 -20 -13 -32 -14 -27 -4 11 14
63 21 63 2 0 -1 -16 -7 -36z m26 -4 c-3 -11 -10 -23 -16 -27 -5 -3 -8 -2 -5 3
3 5 8 17 11 27 9 24 16 22 10 -3z m674 -52 c-3 -8 -6 -5 -6 6 -1 11 2 17 5 13
3 -3 4 -12 1 -19z m-672 -37 c-4 -14 -11 -30 -16 -36 -7 -7 -7 -1 0 16 6 17 6
30 0 36 -6 6 -4 10 6 10 13 0 15 -6 10 -26z m18 -31 c-3 -11 -10 -23 -16 -27
-5 -3 -8 -2 -5 3 3 5 8 17 11 27 9 24 16 22 10 -3z m17 -30 c0 -5 -10 -15 -22
-21 l-23 -12 20 21 c23 24 25 25 25 12z m6 -35 c-11 -8 -25 -15 -30 -15 -6 1
0 7 14 15 32 19 40 18 16 0z m14 -25 c-8 -5 -22 -10 -30 -10 -13 0 -13 1 0 10
8 5 22 10 30 10 13 0 13 -1 0 -10z m20 -20 c-13 -9 -13 -11 0 -20 11 -7 12
-10 2 -10 -7 0 -20 6 -28 14 -12 13 -12 15 4 19 30 8 37 7 22 -3z m45 -40
c-11 -5 -27 -9 -35 -9 -9 0 -8 4 5 9 11 5 27 9 35 9 9 0 8 -4 -5 -9z m32 -16
c-3 -3 -12 -4 -19 -1 -8 3 -5 6 6 6 11 1 17 -2 13 -5z m23 -18 c0 -2 -9 -6
-20 -9 -11 -3 -18 -1 -14 4 5 9 34 13 34 5z m35 -16 c-11 -5 -27 -9 -35 -9 -9
0 -8 4 5 9 11 5 27 9 35 9 9 0 8 -4 -5 -9z m102 -46 c-3 -3 -12 -4 -19 -1 -8
3 -5 6 6 6 11 1 17 -2 13 -5z m-339 -129 c-3 -3 -9 2 -12 12 -6 14 -5 15 5 6
7 -7 10 -15 7 -18z m472 -99 c0 -8 11 -46 24 -85 13 -39 20 -68 15 -65 -16 9
-80 144 -74 154 9 15 35 12 35 -4z m-58 -43 c21 -48 78 -133 109 -164 18 -18
25 -109 8 -109 -5 0 -23 7 -39 15 -36 18 -83 114 -99 200 -7 33 -14 70 -17 83
-8 39 15 24 38 -25z m-193 1 c24 -8 55 -14 67 -14 18 0 25 -7 30 -27 3 -16 12
-52 20 -82 14 -49 12 -85 -2 -47 -3 9 -13 16 -21 16 -19 0 -141 117 -160 154
-14 27 -14 28 3 21 11 -4 39 -14 63 -21z m427 -210 c8 -33 3 -37 -24 -18 -13
9 -22 26 -22 40 0 22 3 23 20 14 11 -6 23 -22 26 -36z m8 -77 c14 -22 2 -31
-29 -23 -20 5 -25 13 -25 37 0 30 1 31 22 17 12 -8 26 -22 32 -31z m-242 -150
l97 1 -4 -44 c-4 -54 -11 -65 -33 -57 -14 5 -14 3 2 -9 18 -14 18 -19 6 -62
-7 -26 -16 -49 -20 -51 -12 -8 -200 208 -200 230 0 4 12 3 28 -1 15 -5 71 -8
124 -7z m187 -45 c12 -22 11 -23 -8 -13 -12 7 -18 17 -14 27 6 17 6 17 22 -14z"/>
<path d="M2662 1420 c0 -14 2 -19 5 -12 2 6 2 18 0 25 -3 6 -5 1 -5 -13z"/>
<path d="M1840 1710 c0 -5 5 -10 10 -10 6 0 10 5 10 10 0 6 -4 10 -10 10 -5 0
-10 -4 -10 -10z"/>
<path d="M1900 1635 c-7 -9 -11 -18 -8 -20 3 -3 11 1 18 10 7 9 11 18 8 20 -3
3 -11 -1 -18 -10z"/>
<path d="M1851 1536 c-16 -64 -14 -98 10 -158 18 -48 106 -154 117 -143 3 2
-10 16 -27 31 -39 32 -80 102 -92 153 -8 37 -1 103 16 144 4 9 3 17 -3 17 -5
0 -15 -20 -21 -44z"/>
<path d="M2066 1630 c-36 -11 -84 -56 -100 -92 -17 -39 -5 -141 20 -175 32
-45 101 -75 153 -69 143 19 208 183 113 290 -40 45 -121 65 -186 46z"/>
<path d="M1260 2940 c0 -15 4 -30 9 -35 8 -9 70 -185 85 -240 3 -11 3 0 0 25
-6 50 -53 198 -78 245 -16 30 -16 30 -16 5z"/>
<path d="M1520 2939 c0 -3 9 -32 19 -65 11 -32 31 -102 45 -155 14 -53 48
-152 76 -219 28 -67 59 -156 70 -198 10 -43 19 -67 19 -55 1 28 18 38 37 22
13 -11 14 -9 8 17 -17 71 -112 423 -131 487 -3 10 -11 16 -18 13 -8 -3 -16 2
-19 10 -3 8 -12 14 -21 14 -8 0 -15 7 -15 15 0 8 -4 15 -9 15 -5 0 -13 10 -17
22 -7 23 -44 87 -44 77z"/>
<path d="M1255 2792 c66 -135 127 -366 124 -472 -1 -30 -3 -26 -15 24 -8 33
-19 65 -24 71 -5 7 -7 14 -4 17 3 3 1 9 -5 13 -16 9 -14 -67 4 -183 18 -114
23 -132 35 -132 5 0 7 8 4 18 -5 14 -4 15 5 2 6 -8 10 -28 10 -45 -1 -29 -1
-29 -8 -5 -16 52 2 -169 21 -260 10 -52 25 -126 31 -165 19 -106 29 -62 17 77
-21 247 -45 451 -50 429 -3 -12 -5 49 -6 136 0 95 -6 182 -14 218 -7 33 -13
71 -12 85 1 21 0 22 -6 6 -7 -15 -11 -10 -21 25 -16 55 -73 164 -106 204 -19
23 -14 8 20 -63z m132 -564 c-3 -7 -5 -2 -5 12 0 14 2 19 5 13 2 -7 2 -19 0
-25z"/>
<path d="M1121 2560 c0 -8 4 -24 9 -35 5 -13 9 -14 9 -5 0 8 -4 24 -9 35 -5
13 -9 14 -9 5z"/>
<path d="M732 2429 c-13 -126 -14 -254 -2 -339 l7 -55 3 55 c2 58 5 55 15 -23
6 -44 8 -46 27 -36 14 7 18 17 15 32 -27 114 -39 205 -45 332 l-7 150 -13
-116z"/>
<path d="M2360 2534 c0 -17 87 -150 173 -264 81 -107 196 -238 298 -342 31
-32 53 -60 50 -64 -3 -3 -1 -4 5 -2 6 2 47 -30 90 -71 43 -41 84 -76 91 -77
12 -2 75 -47 101 -71 29 -28 -6 -11 -55 27 -29 22 -53 37 -53 35 0 -7 -45 21
-91 57 -56 43 -59 33 -6 -20 26 -27 44 -52 40 -57 -5 -4 -3 -5 3 -2 12 7 80
-50 77 -64 -2 -5 13 -15 32 -23 19 -8 35 -20 35 -26 0 -6 4 -9 8 -6 4 2 19 -4
32 -14 l25 -19 -40 4 c-22 3 -2 -4 45 -15 50 -12 110 -19 145 -18 l60 3 0 55
0 55 -222 150 c-457 309 -566 405 -738 644 -73 102 -104 139 -105 125z"/>
<path d="M1140 2496 c0 -6 83 -301 110 -391 24 -80 51 -197 46 -202 -3 -3 -10
5 -15 18 -46 121 -67 162 -87 175 -13 9 -28 13 -35 9 -6 -4 -15 -1 -20 6 -16
25 -10 -21 15 -121 14 -52 24 -95 23 -96 -1 -1 -19 -4 -40 -7 -36 -6 -39 -4
-63 36 -14 23 -36 60 -50 82 -24 38 -25 39 -20 10 l6 -30 -15 28 c-22 39 -28
34 -10 -9 8 -20 15 -41 15 -48 0 -13 -76 115 -85 145 -5 14 -10 18 -17 11 -11
-11 19 -125 53 -199 10 -24 19 -47 19 -53 0 -22 -26 -8 -49 25 -29 43 -37 39
-21 -10 21 -64 3 -48 -34 30 -20 42 -36 80 -36 85 0 5 -4 11 -10 15 -9 6 12
-60 45 -144 l18 -44 -24 -19 c-21 -17 -22 -18 -2 -9 12 6 24 11 26 11 3 0 24
-34 46 -75 23 -41 44 -75 47 -75 3 0 -4 16 -16 36 -11 21 -17 41 -13 45 5 5
21 -16 36 -45 15 -29 41 -68 58 -87 l30 -34 -34 55 c-37 61 -82 168 -75 176 3
3 19 -19 36 -48 31 -54 116 -160 135 -167 5 -2 7 1 3 8 -5 7 -1 9 8 5 25 -9
19 13 -16 64 -23 35 -3 18 78 -64 60 -61 91 -90 68 -65 -22 25 -47 55 -55 66
-13 19 -13 19 6 5 11 -8 33 -26 48 -40 16 -14 34 -24 39 -22 5 1 7 -1 4 -6 -3
-5 8 -19 25 -31 29 -21 29 -22 17 -2 -7 12 -16 21 -21 21 -4 0 -5 5 -2 11 4 6
-3 13 -15 16 -12 3 -19 11 -16 19 3 7 -14 39 -37 71 -161 219 -170 239 -101
231 21 -2 30 -11 39 -38 7 -19 35 -83 63 -141 37 -76 57 -108 73 -112 11 -3
18 -10 15 -16 -4 -5 2 -14 11 -20 10 -5 27 -32 37 -60 23 -66 40 -66 34 -1 -6
58 2 57 19 -3 l13 -42 -5 49 c-3 27 -5 65 -5 85 0 24 -3 32 -9 22 -6 -10 -11
-4 -16 20 -22 107 -118 398 -146 445 -11 17 -19 40 -19 50 0 17 -118 384 -126
393 -2 2 -4 1 -4 -3z m209 -761 c0 -5 -11 21 -25 59 -13 39 -24 77 -23 85 1 9
12 -18 25 -59 13 -41 24 -79 23 -85z m-319 17 c48 -87 38 -86 -24 4 -51 72
-53 77 -31 72 9 -2 34 -36 55 -76z m327 -54 c-3 -8 -6 -5 -6 6 -1 11 2 17 5
13 3 -3 4 -12 1 -19z"/>
<path d="M587 2281 c-4 -35 -6 -87 -6 -115 1 -31 5 -10 10 54 10 116 6 162 -4
61z"/>
<path d="M851 2250 c0 -8 7 -31 15 -50 l14 -35 -6 35 c-7 40 -24 76 -23 50z"/>
<path d="M1150 2210 c6 -11 13 -20 16 -20 2 0 0 9 -6 20 -6 11 -13 20 -16 20
-2 0 0 -9 6 -20z"/>
<path d="M1742 2185 c0 -16 2 -22 5 -12 2 9 2 23 0 30 -3 6 -5 -1 -5 -18z"/>
<path d="M1156 2165 c-3 -8 3 -19 14 -25 27 -15 29 -13 17 15 -14 28 -22 31
-31 10z"/>
<path d="M787 1960 c-4 -8 -1 -53 7 -100 7 -47 12 -88 9 -92 -2 -5 1 -8 6 -8
6 0 11 -10 12 -22 0 -13 3 -17 6 -10 3 8 -2 50 -11 95 -9 45 -17 98 -19 117
-2 22 -5 30 -10 20z"/>
<path d="M3323 1827 c58 -108 100 -177 109 -177 5 0 8 35 8 78 0 94 -15 122
-65 122 -31 0 -65 21 -65 40 0 4 -7 11 -16 14 -10 4 0 -23 29 -77z"/>
<path d="M766 1815 c3 -33 12 -87 20 -120 22 -95 15 -88 -20 19 -18 55 -38
102 -44 104 -20 6 -16 -40 23 -268 l6 -35 -17 35 c-26 54 -32 70 -53 130 -11
30 -20 46 -21 35 -2 -26 -25 36 -35 93 -4 23 -11 45 -16 48 -5 3 -9 2 -8 -3 1
-4 -1 -21 -6 -37 -5 -17 -1 -67 9 -128 9 -56 15 -102 13 -104 -2 -2 -12 34
-22 81 -11 52 -22 85 -30 85 -35 0 46 -434 100 -540 7 -14 22 -81 34 -148 23
-137 53 -266 76 -332 25 -72 11 -55 -33 40 -23 50 -45 90 -48 90 -11 0 6 -110
37 -240 33 -139 82 -304 75 -250 -14 99 -18 164 -9 155 5 -5 22 -39 37 -75 42
-98 95 -190 139 -243 39 -46 62 -61 51 -33 -3 8 -1 17 5 21 6 3 11 2 11 -4 0
-6 7 -8 15 -5 8 4 21 2 28 -4 6 -5 44 -13 82 -17 l70 -7 -71 37 c-47 24 -94
60 -140 107 l-69 70 62 -48 c73 -58 156 -94 217 -94 24 0 61 -6 83 -14 22 -8
46 -11 52 -6 10 5 9 9 -3 13 -29 11 -17 23 40 41 60 19 57 14 38 82 -5 18 7
30 78 76 45 30 110 66 142 81 l60 26 35 -31 c34 -30 78 -52 134 -69 47 -13 29
4 -45 46 -39 22 -92 59 -118 82 -26 23 -50 39 -54 36 -4 -4 -4 0 0 10 5 14 9
15 20 6 8 -7 17 -10 19 -7 6 6 -44 78 -54 78 -7 0 -61 -29 -296 -156 -44 -24
-88 -44 -98 -44 -10 0 -28 19 -45 47 -15 26 -51 73 -79 105 -29 32 -53 62 -53
67 0 5 -24 27 -54 49 -38 29 -56 51 -61 72 -4 17 -31 58 -60 91 -80 90 -106
159 -69 190 8 7 27 35 41 63 22 43 25 59 20 112 -3 34 -17 90 -31 125 -37 94
-66 206 -69 274 -2 33 -11 83 -20 110 -9 28 -18 59 -21 70 -3 11 -3 -7 0 -40z
m-139 -267 c-3 -8 -6 -5 -6 6 -1 11 2 17 5 13 3 -3 4 -12 1 -19z m1042 -933
c0 -5 -6 -1 -14 9 -8 11 -15 24 -15 30 0 5 7 1 15 -10 8 -10 14 -23 14 -29z"/>
<path d="M831 1694 c0 -11 3 -14 6 -6 3 7 2 16 -1 19 -3 4 -6 -2 -5 -13z"/>
<path d="M468 1666 c-3 -14 -1 -23 4 -20 5 3 6 -5 3 -19 -4 -14 -2 -28 4 -31
6 -4 11 -15 11 -24 0 -15 -2 -15 -10 -2 -16 24 -11 5 9 -41 11 -23 27 -44 36
-45 12 -2 15 2 10 14 -3 9 -16 53 -27 97 -23 90 -33 108 -40 71z"/>
<path d="M3390 1661 c0 -5 5 -13 10 -16 6 -3 10 -2 10 4 0 5 -4 13 -10 16 -5
3 -10 2 -10 -4z"/>
<path d="M1150 1576 c0 -2 7 -9 15 -16 13 -11 14 -10 9 4 -5 14 -24 23 -24 12z"/>
<path d="M3048 1553 c7 -3 16 -2 19 1 4 3 -2 6 -13 5 -11 0 -14 -3 -6 -6z"/>
<path d="M1195 1540 c3 -5 11 -10 16 -10 6 0 7 5 4 10 -3 6 -11 10 -16 10 -6
0 -7 -4 -4 -10z"/>
<path d="M3088 1543 c6 -2 18 -2 25 0 6 3 1 5 -13 5 -14 0 -19 -2 -12 -5z"/>
<path d="M555 1415 c4 -17 11 -34 16 -39 5 -5 4 5 -1 24 -12 42 -24 55 -15 15z"/>
<path d="M1170 1380 c-30 -16 -67 -35 -82 -42 -28 -12 -36 -25 -44 -66 l-5
-24 29 21 c16 11 31 18 34 16 2 -3 37 24 77 60 78 71 76 81 -9 35z"/>
<path d="M590 1345 c0 -5 5 -17 10 -25 5 -8 10 -10 10 -5 0 6 -5 17 -10 25 -5
8 -10 11 -10 5z"/>
<path d="M1772 840 c7 -11 17 -20 22 -20 5 0 1 9 -9 20 -10 11 -20 20 -22 20
-2 0 2 -9 9 -20z"/>
<path d="M1145 799 c-4 -6 -5 -12 -2 -15 2 -3 7 2 10 11 7 17 1 20 -8 4z"/>
<path d="M1780 804 c0 -10 83 -176 114 -228 20 -32 36 -62 36 -67 0 -5 8 -9
18 -9 10 0 13 3 6 8 -6 4 -39 65 -73 137 -34 71 -68 133 -74 137 -9 6 -8 8 2
8 8 0 11 3 7 7 -7 8 -36 13 -36 7z"/>
<path d="M1875 520 c11 -5 27 -9 35 -9 9 0 8 4 -5 9 -11 5 -27 9 -35 9 -9 0
-8 -4 5 -9z"/>
<path d="M811 314 c0 -11 3 -14 6 -6 3 7 2 16 -1 19 -3 4 -6 -2 -5 -13z"/>
<path d="M2345 260 c3 -5 8 -10 11 -10 2 0 4 5 4 10 0 6 -5 10 -11 10 -5 0 -7
-4 -4 -10z"/>
<path d="M1471 206 c-9 -10 -8 -16 4 -26 9 -7 14 -19 11 -27 -3 -7 -1 -13 4
-13 6 0 10 14 10 31 0 20 -4 28 -12 23 -8 -5 -9 -2 -5 9 8 21 3 22 -12 3z"/>
<path d="M1682 107 c-106 -106 -106 -107 12 -107 57 0 61 2 111 49 l51 48 -20
24 c-12 14 -30 37 -41 52 l-20 27 -93 -93z"/>
<path d="M1545 130 c-3 -5 1 -10 9 -10 9 0 16 5 16 10 0 6 -4 10 -9 10 -6 0
-13 -4 -16 -10z"/>
</g>
</svg>
